<?xml version="1.0" encoding="UTF-8" standalone="no"?>
<!DOCTYPE svg PUBLIC "-//W3C//DTD SVG 1.1//EN" "http://www.w3.org/Graphics/SVG/1.1/DTD/svg11.dtd">
<svg width="100%" height="100%" viewBox="0 0 1366 2541" version="1.1" xmlns="http://www.w3.org/2000/svg" xmlns:xlink="http://www.w3.org/1999/xlink" xml:space="preserve" xmlns:serif="http://www.serif.com/" style="fill-rule:evenodd;clip-rule:evenodd;stroke-linejoin:round;stroke-miterlimit:2;">
    <g transform="matrix(0.992798,0,0,0.992798,9253.74,3281)">
        <g transform="matrix(16.0987,0,0,16.2779,138442,43781.6)">
            <text x="-9160.59px" y="-2794.78px" style="font-family:'Oswald-Bold', 'Oswald';font-weight:700;font-size:90px;fill:white;stroke:rgb(205,153,30);stroke-width:2.74px;">A</text>
        </g>
        <g transform="matrix(0.443328,0,0,0.24432,-4668.56,-2694.53)">
            <ellipse cx="-8942.62" cy="-1486.97" rx="653.906" ry="171.733" style="fill:none;stroke:rgb(205,153,30);stroke-width:76.2px;stroke-linecap:square;stroke-linejoin:miter;stroke-miterlimit:1.5;"/>
        </g>
        <g transform="matrix(0.287755,0,0,0.283839,-5049.64,-297.481)">
            <g transform="matrix(0.966666,0,0,1,-494.509,0)">
                <text x="-14834.8px" y="-3058.36px" style="font-family:'Rockwell-Condensed', 'Rockwell Condensed', serif;font-stretch:condensed;font-size:1465.01px;fill:rgb(205,153,30);">A<tspan x="-14185.9px -13233.6px -12616.8px -12016.5px -11369px -10461.8px " y="-3058.36px -3058.36px -3058.36px -3058.36px -3058.36px -3058.36px ">WESOME</tspan></text>
            </g>
            <text x="-14135.7px" y="-1593.35px" style="font-family:'Rockwell-Condensed', 'Rockwell Condensed', serif;font-stretch:condensed;font-size:1465.01px;fill:rgb(205,153,30);">A<tspan x="-13391.4px -12616.4px -11948.7px -11295.3px " y="-1593.35px -1593.35px -1593.35px -1593.35px ">NGEL</tspan></text>
        </g>
    </g>
</svg>
