<?xml version="1.0" encoding="UTF-8" standalone="no"?>
<!DOCTYPE svg PUBLIC "-//W3C//DTD SVG 1.1//EN" "http://www.w3.org/Graphics/SVG/1.1/DTD/svg11.dtd">
<svg width="100%" height="100%" viewBox="0 0 1366 2541" version="1.1" xmlns="http://www.w3.org/2000/svg" xmlns:xlink="http://www.w3.org/1999/xlink" xml:space="preserve" xmlns:serif="http://www.serif.com/" style="fill-rule:evenodd;clip-rule:evenodd;stroke-linejoin:round;stroke-miterlimit:2;">
    <g transform="matrix(1,0,0,1,40.7995,119.663)">
        <g transform="matrix(16.0987,0,0,16.2779,147686,46955.4)">
            <text x="-9160.59px" y="-2794.78px" style="font-family:'Oswald-Bold', 'Oswald';font-weight:700;font-size:90px;">D</text>
        </g>
        <g transform="matrix(0.33734,-0.314659,0.275767,0.257226,1827.11,-1594.17)">
            <path d="M-5314.5,1104.49C-5317.45,1131.5 -5310.73,1158.75 -5296.07,1179.26C-5281.4,1199.76 -5260.21,1211.52 -5237.93,1211.52C-5192.92,1211.56 -5137.44,1211.56 -5092.51,1211.56C-5047.38,1211.56 -5010.02,1168.68 -5007.13,1113.59C-4994.22,873.578 -4940.89,657.575 -4877.16,513.551C-5096.41,513.551 -5278.74,769.135 -5314.5,1104.49Z"/>
        </g>
        <g transform="matrix(-0.33734,-0.314659,-0.275767,0.257226,-614.981,-1594.17)">
            <path d="M-5314.5,1104.49C-5317.45,1131.5 -5310.73,1158.75 -5296.07,1179.26C-5281.4,1199.76 -5260.21,1211.52 -5237.93,1211.52C-5192.92,1211.56 -5137.44,1211.56 -5092.51,1211.56C-5047.38,1211.56 -5010.02,1168.68 -5007.13,1113.59C-4994.22,873.578 -4940.89,657.575 -4877.16,513.551C-5096.41,513.551 -5278.74,769.135 -5314.5,1104.49Z"/>
        </g>
        <g transform="matrix(0.281795,0,0,0.281795,4147.71,2864.38)">
            <text x="-14704.6px" y="-3058.36px" style="font-family:'Rockwell-Condensed', 'Rockwell Condensed', serif;font-stretch:condensed;font-size:1465.01px;">D<tspan x="-13989.7px -13245.5px -12622.9px -12000.2px -11546.4px -10771.4px " y="-3058.36px -3058.36px -3058.36px -3058.36px -3058.36px -3058.36px ">UFFING</tspan></text>
            <text x="-14289.8px" y="-1593.35px" style="font-family:'Rockwell-Condensed', 'Rockwell Condensed', serif;font-stretch:condensed;font-size:1465.01px;">D<tspan x="-13574.9px -12921.5px -11977.7px -11293.5px " y="-1593.35px -1593.35px -1593.35px -1593.35px ">EMON</tspan></text>
        </g>
    </g>
</svg>
