<?xml version="1.0" encoding="UTF-8" standalone="no"?>
<!DOCTYPE svg PUBLIC "-//W3C//DTD SVG 1.1//EN" "http://www.w3.org/Graphics/SVG/1.1/DTD/svg11.dtd">
<svg width="100%" height="100%" viewBox="0 0 1366 2541" version="1.1" xmlns="http://www.w3.org/2000/svg" xmlns:xlink="http://www.w3.org/1999/xlink" xml:space="preserve" xmlns:serif="http://www.serif.com/" style="fill-rule:evenodd;clip-rule:evenodd;stroke-linejoin:round;stroke-miterlimit:2;">
    <g>
        <g transform="matrix(16.0987,0,0,16.2779,147773,47057.5)">
            <text x="-9160.59px" y="-2794.78px" style="font-family:'Oswald-Bold', 'Oswald';font-weight:700;font-size:90px;fill:rgb(191,64,109);">S</text>
        </g>
        <g transform="matrix(0.464441,-0.464441,0.379668,0.379668,2352.39,-2460.13)">
            <path d="M-5314.5,1104.49C-5317.45,1131.5 -5310.73,1158.75 -5296.07,1179.26C-5281.4,1199.76 -5260.21,1211.52 -5237.93,1211.52C-5192.92,1211.56 -5137.44,1211.56 -5092.51,1211.56C-5047.38,1211.56 -5010.02,1168.68 -5007.13,1113.59C-4994.22,873.578 -4940.89,657.575 -4877.16,513.551C-5096.41,513.551 -5278.74,769.135 -5314.5,1104.49Z" style="fill:rgb(191,64,109);"/>
        </g>
        <g transform="matrix(-0.464441,-0.464441,-0.379668,0.379668,-1009.82,-2460.13)">
            <path d="M-5314.5,1104.49C-5317.45,1131.5 -5310.73,1158.75 -5296.07,1179.26C-5281.4,1199.76 -5260.21,1211.52 -5237.93,1211.52C-5192.92,1211.56 -5137.44,1211.56 -5092.51,1211.56C-5047.38,1211.56 -5010.02,1168.68 -5007.13,1113.59C-4994.22,873.578 -4940.89,657.575 -4877.16,513.551C-5096.41,513.551 -5278.74,769.135 -5314.5,1104.49Z" style="fill:rgb(191,64,109);"/>
        </g>
        <g transform="matrix(0.281795,0,0,0.281795,4187.7,2984.04)">
            <g transform="matrix(0.9,0,0,1,-1488.85,0)">
                <text x="-14888.5px" y="-3058.36px" style="font-family:'Rockwell-Condensed', 'Rockwell Condensed', serif;font-stretch:condensed;font-size:1465.01px;fill:rgb(191,64,109);">S<tspan x="-14255.9px -13499.6px -12759.8px -11989.2px -11263.7px -10814.3px -10043.6px " y="-3058.36px -3058.36px -3058.36px -3058.36px -3058.36px -3058.36px -3058.36px ">HANKING</tspan></text>
            </g>
            <text x="-14160px" y="-1593.35px" style="font-family:'Rockwell-Condensed', 'Rockwell Condensed', serif;font-stretch:condensed;font-size:1465.01px;fill:rgb(191,64,109);">S<tspan x="-13523px -12822.4px -12167.6px -11423.4px " y="-1593.35px -1593.35px -1593.35px -1593.35px ">ATAN</tspan></text>
        </g>
    </g>
</svg>
