<?xml version="1.0" encoding="UTF-8" standalone="no"?>
<!DOCTYPE svg PUBLIC "-//W3C//DTD SVG 1.1//EN" "http://www.w3.org/Graphics/SVG/1.1/DTD/svg11.dtd">
<svg width="100%" height="100%" viewBox="0 0 6859 1338" version="1.1" xmlns="http://www.w3.org/2000/svg" xmlns:xlink="http://www.w3.org/1999/xlink" xml:space="preserve" xmlns:serif="http://www.serif.com/" style="fill-rule:evenodd;clip-rule:evenodd;stroke-linejoin:round;stroke-miterlimit:2;">
    <g transform="matrix(1,0,0,1,1576.9,-4586.11)">
        <g transform="matrix(0.585456,-0.297744,0.243397,0.478595,1292.47,2888.19)">
            <path d="M-5314.5,1104.49C-5317.45,1131.5 -5310.73,1158.75 -5296.07,1179.26C-5281.4,1199.76 -5260.21,1211.52 -5237.93,1211.52C-5192.92,1211.56 -5137.44,1211.56 -5092.51,1211.56C-5047.38,1211.56 -5010.02,1168.68 -5007.13,1113.59C-4994.22,873.578 -4940.89,657.575 -4877.16,513.551C-5096.41,513.551 -5278.74,769.135 -5314.5,1104.49Z" style="fill:rgb(205,153,30);"/>
        </g>
        <g transform="matrix(-0.585456,-0.297744,-0.243397,0.478595,-1139.82,2888.19)">
            <path d="M-5314.5,1104.49C-5317.45,1131.5 -5310.73,1158.75 -5296.07,1179.26C-5281.4,1199.76 -5260.21,1211.52 -5237.93,1211.52C-5192.92,1211.56 -5137.44,1211.56 -5092.51,1211.56C-5047.38,1211.56 -5010.02,1168.68 -5007.13,1113.59C-4994.22,873.578 -4940.89,657.575 -4877.16,513.551C-5096.41,513.551 -5278.74,769.135 -5314.5,1104.49Z" style="fill:rgb(205,153,30);"/>
        </g>
        <g transform="matrix(1,0,0,1,-997.591,672.391)">
            <g transform="matrix(0.988993,0,0,1,-5.9802,0)">
                <g transform="matrix(1465.01,0,0,1465.01,-543.29,5235.23)">
                    <path d="M0.023,-0L0.023,-0.105L0.076,-0.105L0.076,-0.597L0.023,-0.597L0.023,-0.702L0.271,-0.702L0.271,-0.597L0.243,-0.597L0.243,-0.421L0.349,-0.421L0.349,-0.597L0.321,-0.597L0.321,-0.702L0.569,-0.702L0.569,-0.597L0.516,-0.597L0.516,-0.105L0.569,-0.105L0.569,-0L0.321,-0L0.321,-0.105L0.349,-0.105L0.349,-0.316L0.243,-0.316L0.243,-0.105L0.271,-0.105L0.271,-0L0.023,-0Z" style="fill:rgb(205,153,30);fill-rule:nonzero;"/>
                </g>
                <g transform="matrix(1465.01,0,0,1465.01,327.276,5235.23)">
                    <path d="M0.276,0.011C0.203,0.011 0.145,-0.022 0.102,-0.087C0.058,-0.153 0.036,-0.241 0.036,-0.351C0.036,-0.461 0.058,-0.549 0.101,-0.615C0.145,-0.68 0.203,-0.713 0.276,-0.713C0.348,-0.713 0.406,-0.68 0.45,-0.615C0.494,-0.549 0.516,-0.461 0.516,-0.351C0.516,-0.241 0.494,-0.153 0.45,-0.087C0.406,-0.022 0.348,0.011 0.276,0.011ZM0.276,-0.106C0.292,-0.106 0.303,-0.113 0.311,-0.125C0.319,-0.137 0.324,-0.16 0.328,-0.194C0.331,-0.228 0.333,-0.28 0.333,-0.351C0.333,-0.421 0.331,-0.473 0.328,-0.507C0.324,-0.542 0.319,-0.565 0.311,-0.577C0.303,-0.589 0.292,-0.595 0.276,-0.595C0.26,-0.595 0.248,-0.589 0.24,-0.577C0.232,-0.565 0.227,-0.542 0.224,-0.507C0.221,-0.473 0.219,-0.421 0.219,-0.351C0.219,-0.28 0.221,-0.228 0.224,-0.194C0.227,-0.16 0.232,-0.137 0.24,-0.125C0.248,-0.113 0.26,-0.106 0.276,-0.106Z" style="fill:rgb(205,153,30);fill-rule:nonzero;"/>
                </g>
                <g transform="matrix(1465.01,0,0,1465.01,1135.61,5235.23)">
                    <path d="M0.036,-0L0.036,-0.105L0.079,-0.105L0.079,-0.597L0.036,-0.597L0.036,-0.702L0.297,-0.702C0.361,-0.702 0.412,-0.683 0.45,-0.644C0.488,-0.605 0.507,-0.556 0.507,-0.496C0.507,-0.464 0.502,-0.437 0.491,-0.415C0.48,-0.394 0.463,-0.374 0.438,-0.355L0.492,-0.105L0.521,-0.105L0.521,-0L0.367,-0L0.301,-0.308L0.246,-0.308L0.246,-0.105L0.289,-0.105L0.289,-0L0.036,-0ZM0.246,-0.602L0.246,-0.409C0.287,-0.409 0.313,-0.417 0.323,-0.433C0.334,-0.448 0.34,-0.474 0.34,-0.509C0.34,-0.539 0.335,-0.562 0.324,-0.578C0.314,-0.594 0.288,-0.602 0.246,-0.602Z" style="fill:rgb(205,153,30);fill-rule:nonzero;"/>
                </g>
            </g>
            <g transform="matrix(0.988993,0,0,1,20.9406,0)">
                <g transform="matrix(1465.01,0,0,1465.01,1902.41,5235.23)">
                    <path d="M0.032,-0L0.032,-0.105L0.076,-0.105L0.076,-0.597L0.032,-0.597L0.032,-0.702L0.234,-0.702C0.287,-0.579 0.334,-0.439 0.375,-0.282L0.384,-0.282C0.379,-0.385 0.377,-0.445 0.377,-0.46L0.377,-0.597L0.336,-0.597L0.336,-0.702L0.52,-0.702L0.52,-0.597L0.482,-0.597L0.482,0.006L0.352,0.006L0.298,-0.135C0.275,-0.196 0.253,-0.254 0.235,-0.308C0.216,-0.362 0.198,-0.42 0.181,-0.48L0.172,-0.48C0.178,-0.399 0.181,-0.32 0.181,-0.242L0.181,-0.105L0.219,-0.105L0.219,-0L0.032,-0Z" style="fill:rgb(205,153,30);fill-rule:nonzero;"/>
                </g>
            </g>
            <g transform="matrix(0.988993,0,0,1,30.2187,0)">
                <g transform="matrix(1465.01,0,0,1465.01,2745.31,5235.23)">
                    <path d="M0.023,-0L0.023,-0.105L0.073,-0.105L0.073,-0.597L0.023,-0.597L0.023,-0.702L0.266,-0.702C0.34,-0.702 0.4,-0.67 0.445,-0.607C0.49,-0.544 0.513,-0.458 0.513,-0.35C0.513,-0.246 0.492,-0.161 0.45,-0.097C0.408,-0.032 0.347,-0 0.266,-0L0.023,-0ZM0.24,-0.597L0.24,-0.105C0.264,-0.105 0.283,-0.111 0.296,-0.123C0.309,-0.135 0.319,-0.159 0.326,-0.195C0.333,-0.231 0.336,-0.284 0.336,-0.354C0.336,-0.425 0.332,-0.478 0.324,-0.513C0.316,-0.548 0.306,-0.571 0.293,-0.581C0.28,-0.592 0.262,-0.597 0.24,-0.597Z" style="fill:rgb(205,153,30);fill-opacity:0.76;fill-rule:nonzero;"/>
                </g>
                <g transform="matrix(1465.01,0,0,1465.01,3553.64,5235.23)">
                    <path d="M0.024,-0L0.024,-0.105L0.092,-0.105L0.092,-0.597L0.024,-0.597L0.024,-0.702L0.331,-0.702L0.331,-0.597L0.259,-0.597L0.259,-0.105L0.331,-0.105L0.331,-0L0.024,-0Z" style="fill:rgb(205,153,30);fill-opacity:0.76;fill-rule:nonzero;"/>
                </g>
                <g transform="matrix(1465.01,0,0,1465.01,4072.26,5235.23)">
                    <path d="M0.337,-0.248L0.465,-0.21C0.457,-0.14 0.436,-0.086 0.399,-0.047C0.363,-0.008 0.319,0.011 0.266,0.011C0.198,0.011 0.142,-0.021 0.1,-0.086C0.057,-0.151 0.036,-0.242 0.036,-0.361C0.036,-0.471 0.055,-0.557 0.092,-0.619C0.129,-0.682 0.175,-0.713 0.23,-0.713C0.268,-0.713 0.301,-0.693 0.33,-0.654L0.332,-0.654L0.332,-0.702L0.444,-0.702L0.444,-0.465L0.332,-0.465C0.326,-0.552 0.305,-0.595 0.269,-0.595C0.245,-0.595 0.231,-0.578 0.226,-0.543C0.222,-0.508 0.219,-0.448 0.219,-0.362C0.219,-0.257 0.223,-0.188 0.23,-0.155C0.237,-0.123 0.252,-0.106 0.277,-0.106C0.296,-0.106 0.31,-0.118 0.319,-0.141C0.328,-0.164 0.334,-0.2 0.337,-0.248Z" style="fill:rgb(205,153,30);fill-opacity:0.76;fill-rule:nonzero;"/>
                </g>
                <g transform="matrix(1465.01,0,0,1465.01,4761.13,5235.23)">
                    <path d="M0.005,-0L0.005,-0.105L0.052,-0.105L0.127,-0.597L0.083,-0.597L0.083,-0.702L0.47,-0.702L0.47,-0.597L0.423,-0.597L0.503,-0.105L0.547,-0.105L0.547,-0L0.307,-0L0.307,-0.105L0.351,-0.105L0.334,-0.236L0.219,-0.236L0.203,-0.105L0.246,-0.105L0.246,-0L0.005,-0ZM0.231,-0.323L0.321,-0.323L0.285,-0.615L0.266,-0.615L0.231,-0.323Z" style="fill:rgb(205,153,30);fill-opacity:0.76;fill-rule:nonzero;"/>
                </g>
                <g transform="matrix(1465.01,0,0,1465.01,5569.46,5235.23)">
                    <path d="M0.023,-0L0.023,-0.105L0.072,-0.105L0.072,-0.597L0.023,-0.597L0.023,-0.702L0.249,-0.702C0.332,-0.702 0.396,-0.682 0.442,-0.643C0.488,-0.603 0.511,-0.548 0.511,-0.477C0.511,-0.331 0.42,-0.258 0.239,-0.258L0.239,-0.105L0.298,-0.105L0.298,-0L0.023,-0ZM0.239,-0.597L0.239,-0.365C0.276,-0.365 0.301,-0.375 0.314,-0.396C0.327,-0.417 0.334,-0.445 0.334,-0.482C0.334,-0.559 0.302,-0.597 0.239,-0.597Z" style="fill:rgb(205,153,30);fill-opacity:0.76;fill-rule:nonzero;"/>
                </g>
            </g>
        </g>
    </g>
</svg>
